<svg xmlns="http://www.w3.org/2000/svg" viewBox="120 0 328.99 244.41">
	<path d="M237,115.69a1.46,1.46,0,0,0,1.09-1.47c-.07-3.87,2.77-6.69,4-10.16,1.27-2.1-2.45-3.15-1.19-5,3-4.29,1.55-9.95,3-14.81,1.88-7.08,6-13.41,7.59-20.59.53-4.44-1.25-9.36,2.25-12.85,6.3-5,13.36-10.42,21.19-13.11-.94-2.58-1.87-5.1-2.84-7.77,2.1-.66,4.41.46,6.56-.57-.25-2.39-.49-4.8-.76-7.43-3.68-1.2-11.33-.8-8.92-6.94,1.4-4.4,4-3.91,8.19-5.09,0-10,2.84-13.81,10.38-4.91,8.81-5.16,8.56-2.24,10.47,6,1.79.31,11.93,3.69,11.31,5.11-.68,4.36-5.47,5.78-9.27,6.42v5.84c3.07.2,6.11-.47,9.42-.28a72.63,72.63,0,0,0-5.35,10.08c2.06,2.37,6.46,2.23,7.1,5.48.17,1.86,2.93,2.47,2.72,4.58.32,5.26,3.53,9.93,5,14.9,3.49,9.59,4.25,20,6.52,29.92,3.88,11.65,3,23.81,3.43,35.84.74,2.94-2.59,4-4.62,5.31-2.18,2.08,1.24,6,.11,8.73,0,5.68-1.34,11.3-1.24,17.06-22,13-4.43-.38-16.72-8-.71,4.81-1.51,9-.31,13.63,1,6.16-2,12.42-.06,18.59-.28,8.58-3.38,17.08-5.24,25.5-.34,4.17,3,3.22-1.35,7.46-1.84,3.48,3.67,1.11-2.16,7.73.86,2.83,6.88,6.85,5.85,8.65-2.16,10.33-5.11,7.19-13.1,5.6-2.4-.36-2.37-5.41-3.72-7.38-4.68-6.88-3.76-9.18-4.38-17.09-3,2.74-5.25-.06-8.14-1.59-.86-1.77.32-3.48,1-5.2,6.37-9.13,1.23-14.19-.43-23.5-.56-20.81-1.52-15.4-18.82-24.22l-4.87,3.22c-1-11.45,3.15-22.1,4.46-33.26.39-9.6-.23-18.76,2.65-28.08-8.85,8.08-3,6.07-6.19,13.52-2,1.84,1,4.79-1.49,6.43-1.6,1.1-.86,3.47-1,5.15-1,4-6.6,3.91-10.06,3.36-29.93,39.09-58,84.81-105.36,104.45C84.9,260,14.61,233.25,1.94,178.1-8.52,129.73,24.34,76,73.71,66.6,127.92,57.71,189.34,92.36,237,115.69Z"/>
</svg>