<svg xmlns="http://www.w3.org/2000/svg" viewBox="25 99 185 106">
	<path d="M30.87,117c0-2.67,0-5.11,0-7.56s.21-4.84.33-7.3l2.68-.29V99.09l-8,.26v2.38l2.82.36v15Z"/>
	<path d="M41.65,109.53v7.27h2c.26-6,1-11.79.63-17.75l-1.33.16c-1.23.18-1.3.19-1.32,1.44s.07,2.7.15,4c0,.76.12,1.52.2,2.36H39.27c0-2.16-.15-4.19-.09-6.21,0-1.81,0-1.91-1.72-1.8a6.26,6.26,0,0,0-.92.18c-.14,1.87-.39,3.73-.41,5.58,0,3.71,0,7.41.08,11.12,0,.34,0,.69.08,1h2.6l.5-7.12Z"/>
	<path d="M49.57,114.63c-.42-1.67.29-3.22,0-5h3.73l.29-2.78-4.76.28.27-4.51,5.1-.33.15-1.93c-2.62-.93-5.17,0-7.69-.36,0,3.13-.11,6.15,0,9.16a35,35,0,0,1-.15,7.79c0,.22.13.47.23.81l7.6-.37-.16-2.78Z"/>

	<path d="M34.17,161c.31-6.22,0-12.3.34-18.5l9.14-.58c.67-1.68.17-3.37.27-5.11-3.23-.37-6.2.86-9.18.73V125.89H46c-.06-1.68,0-3.27-.12-4.82-2.84-.36-14.87.29-16.23.82-1.53,13-1.66,26-1.55,39.11Z"/>
	<path d="M64.46,143.79a6,6,0,0,1,1-.34,4.07,4.07,0,0,0,3.34-3.14,16.67,16.67,0,0,0,.54-3.22c.36-3.72.35-7.41-1.11-10.94a7.12,7.12,0,0,0-4.56-4.44,33,33,0,0,0-4-.82c-3.3-.53-6.55.28-9.83.43-.14,0-.27.13-.6.29v4.12c0,1.51,0,3,0,4.54,0,3.44-.07,6.89-.11,10.33,0,2.29,0,4.59-.07,6.88,0,.66-.3,1.32-.3,2,0,2,.11,4,.16,6.07s.07,4,.1,6.23c1.82-.09,3.47-.14,5.13-.25,1-.08,1.14-.25,1.12-1.26,0-2.45-.06-4.89-.06-7.33s0-4.7,0-7c0-.71.14-1.35,1.07-1.46s1.34,0,1.71.93c.85,2.12,1.7,4.26,2.54,6.39,1.17,3,2.33,6,3.57,9.2,1.82,0,3.63,0,5.45,0a3.69,3.69,0,0,0,1.07-.4Zm-3.71-4.88c-2,.27-4.12.44-6.51.68.38-4.6-.17-8.88.46-13.34,2.06,0,4-.28,5.95.27,1.65.47,2.45,1.92,3,3.37a11.63,11.63,0,0,1,1,3.78C64.78,136.57,63.75,138.52,60.75,138.91Z"/>
	<path d="M96.91,141.22c0-2.51.16-5,0-7.52-.28-3.4-.47-6.85-2.78-9.75a6.86,6.86,0,0,0-4.87-3c-1.5-.13-3-.13-4.52-.12a13,13,0,0,0-3.25.19c-3.1.83-5.53,2.62-6.34,5.86a24.88,24.88,0,0,0-.65,5.9c0,5.32.15,10.64.25,16a33.14,33.14,0,0,0,.13,3.6,16.75,16.75,0,0,0,1.41,5.74,3.8,3.8,0,0,0,2.08,2,10.33,10.33,0,0,0,1.62.47,37.11,37.11,0,0,0,5.1.67,23,23,0,0,0,4.81-.52c3.85-.74,6.26-2.35,6.51-6.23.29-4.42.55-8.84.83-13.26Zm-7.56,8.18c-.13,1-.28,2-.47,2.92-.56,2.79-2.63,3.6-5.21,2.68a2.47,2.47,0,0,1-1.92-2.17c-.29-2.74-.87-5.47-.93-8.21-.08-3.33.27-6.66.4-10a13.37,13.37,0,0,1,1.11-5.31,4.27,4.27,0,0,1,5.3-2.37,2.11,2.11,0,0,1,1.05,1.23,17.7,17.7,0,0,1,.87,3.64c.32,3.37.51,6.75.77,10.4C90,144.45,89.7,146.93,89.35,149.4Z"/>
	<path d="M114.65,147.48h-.34c-.23-.9-.45-1.81-.71-2.71-.76-2.71-1.5-5.43-2.32-8.13-1-3.19-2-6.36-3-9.55-.46-1.44-.91-2.89-1.35-4.33a1.14,1.14,0,0,0-1.21-1c-1.72,0-3.44-.12-5.16-.14-.88,0-1.07.21-1,1.15.07,2.51.18,5,.29,7.51.13,3,.3,6,.39,9.06.07,2.4.07,4.81.06,7.21,0,3.08-.11,6.16-.14,9.25,0,1.33,0,2.67,0,3.91h5.93c-.17-6.81-.35-13.46-.53-20.42A99.12,99.12,0,0,1,110.9,155c.47,1.8,1,3.58,1.57,5.39L119,160c.54-12.8,1.33-25.41.93-38.25l-5.48-.26C113.74,130.32,115.12,138.9,114.65,147.48Z"/>
	<path d="M129.27,127.7c-.07,3.7-.16,7.29-.21,10.89s-.21,7.1-.09,10.64-.35,7.18.28,10.89l4.57-.57c.45-10.8-.38-21.39.83-32,.48,0,.79-.07,1.1-.06,1.62,0,3.24,0,4.86,0,1.15,0,1.27-.09,1.32-1.2s0-2.09,0-3.14c0-.65,0-1.31,0-2-6.76-.14-13.37-.38-19.9.36V128Z"/>
	<path d="M145.21,121.33c-.21,13-.41,25.78-.61,38.77h16.79v-4.9l-12.23-.29c.16-4.25.31-8.43.46-12.64,3.47-.3,6.83-.13,10.13-.94.12-1.7.23-3.29.36-5.06-3.51,0-6.92.63-10.44.19.16-3.61.31-7.1.47-10.75a90,90,0,0,1,10.52.14c.63-1.59,0-3,0-4.52Z"/>
	<path d="M165.11,160.49h4.83a.94.94,0,0,0,1-.82,6.59,6.59,0,0,0,.09-1.09c.15-4.59.28-9.19.45-13.79.05-1.35.19-2.71.29-4.06a3.49,3.49,0,0,1,.63,1.45c.27,1.06.48,2.14.78,3.19.65,2.31,1.34,4.61,2,6.91s1.28,4.41,2,6.58c.43,1.25.52,1.19,1.83,1.11,1-.07,2.08-.06,3.13-.1.61,0,1.22-.08,1.85-.13a5.49,5.49,0,0,0,.15-.72c.1-2.61.19-5.22.29-7.83q.24-6.42.49-12.84c.15-4,.34-7.92.45-11.88,0-1.54-.09-3.09-.14-4.62l-5.39-.45v25.36l-.36.08c-.2-.62-.41-1.23-.6-1.85q-3.39-11.24-6.78-22.47a1.78,1.78,0,0,0-.66-1c-1-.57-4.17-.17-5.09.47C166,134.84,165.54,147.56,165.11,160.49Z"/>
	<path d="M209.21,131.09a8,8,0,0,0-1.86-4.87,10.13,10.13,0,0,0-6.17-3.94,44.44,44.44,0,0,0-10.61-.67,6.76,6.76,0,0,0-1.25.34c0,.83,0,1.55,0,2.28.08,3.29.19,6.57.27,9.86.07,2.92.16,5.85.15,8.77s-.14,5.63-.23,8.44c-.1,3.08-.21,6.16-.3,9.24,0,.13.11.28.21.53a76.85,76.85,0,0,0,13.71-1.89c2.26-.6,4.07-1.78,4.67-4.14a39.3,39.3,0,0,0,1-6c.35-3.85.65-7.7.77-11.56C209.68,135.36,209.24,133.23,209.21,131.09Zm-5.76,17.57c-.35,4.43-2.27,6.08-7,6.59a12.48,12.48,0,0,1-2-.11c.11-1.7.31-3.2.29-4.71,0-3-.19-6-.26-8.92-.09-3.45-.13-6.9-.18-10.34,0-1.77,0-3.54,0-5.5.74,0,1.35,0,2,0,1.15.07,2.29.18,3.44.27,2.27.17,3.42,1.06,3.81,3.35a33.37,33.37,0,0,1,.61,6.22C204,139.9,203.79,144.29,203.45,148.66Z"/>

	<path d="M37.89,164.89c-1.31,0-2.41,0-3.49,0-.61,0-1.26.21-1.41,1-.41,2.15-.86,4.29-1.26,6.44-.25,1.33-.41,2.68-.65,4-.28,1.65-.54,3.3-.91,4.93-.48,2.08-1.14,4.12-1.58,6.2-.69,3.22-1.27,6.46-1.87,9.69-.4,2.15-.77,4.3-1.17,6.55h5.2q.95-3.87,1.89-7.68h8.6c.59,2.63,1.17,5.15,1.75,7.71l4.85-.29C44.17,190.58,40.62,177.83,37.89,164.89ZM33.48,191.4l2.74-13.74c1.31,4.72,2.55,9.16,3.82,13.74Z"/>
	<path d="M64.43,187.22c-.1,2.4-.22,4.63-.29,6.86a5.64,5.64,0,0,1-1.43,3.4,4.25,4.25,0,0,1-6.32-.16c-.9-1.14-.79-2.45-.81-3.73,0-2.77,0-5.54,0-8.31,0-2.61-.21-5.22-.2-7.83a62.35,62.35,0,0,1,.33-6.26,4.11,4.11,0,0,1,6.38-2.92,5.36,5.36,0,0,1,2.25,4.24c0,1.5,0,3,0,4.51l4.7-.43c.52-2.87-.1-5.56-.8-8.24-.75-2.9-2.85-4.32-5.58-4.81a13.06,13.06,0,0,0-9.18,1.75,5.14,5.14,0,0,0-2.37,3.19,36.48,36.48,0,0,0-1.44,9.26c0,5,.17,9.93.36,14.88a23,23,0,0,0,1.22,6.92c1.5,4.17,4.22,5.63,8.4,5a33.46,33.46,0,0,0,5-1.66l.35.82,4.29-.61c.22-7-.3-13.87-.48-21l-9.52.45v5.14C61,188.17,62.58,187.07,64.43,187.22Z"/>
	<path d="M82.69,179.58c0-.93,0-1.66,0-2.38.06-2.14.16-4.28.19-6.42,0-1.56.07-1.68,1.68-1.73,2.46-.08,4.91-.11,7.37-.17.44,0,.88-.09,1.41-.14V163.9a3.63,3.63,0,0,0-.64-.13c-4.07.07-8.15.13-12.22.23a21.52,21.52,0,0,0-2.65.22,11.9,11.9,0,0,0-1.65.48c.38,13.12,0,26-.52,39.09,5.94,0,11.74-.09,17.48-.4v-5.78c-3.33,0-6.54-.61-9.75,0a2.48,2.48,0,0,1-1.8-.23V185.82a54.67,54.67,0,0,0,10.07-.93c.13-1.84.26-3.53.39-5.31Z"/>
	<path d="M117.53,164l-5.08.12a.89.89,0,0,0-1,.79,8.72,8.72,0,0,0-.19,1.23c0,2.13-.08,4.27-.05,6.4.07,4.16.2,8.33.29,12.5,0,.51,0,1,0,1.53l-.41,0-5.8-21.6c-1.93-.42-6.77-.33-7.89.19.35,12.84,0,25.69-.37,38.69l6.25-.45c0-7.23.1-14.38.15-21.52l.34,0c.69,2.22,1.41,4.43,2.07,6.66q1.35,4.58,2.6,9.18c.42,1.56.71,3.15,1.06,4.73.09.39.16.78.23,1.12,2,.09,4,.21,5.9.26,1.15,0,1.49-.34,1.5-1.49,0-2.24,0-4.48,0-6.72,0-2.51.09-5,.19-7.52.09-2.09.33-4.17.35-6.26,0-5.33,0-10.66,0-16C117.65,165.18,117.57,164.56,117.53,164Z"/>
	<path d="M137.17,191c.09,1.2.15,2.23.23,3.27a6.59,6.59,0,0,1-.74,3.64,3.12,3.12,0,0,1-3.46,1.84,3.08,3.08,0,0,1-2.53-2.65,22.61,22.61,0,0,1-.35-3c-.15-2.71-.35-5.43-.34-8.15,0-4.88-.48-9.81,1-14.61a3.4,3.4,0,0,1,2.88-2.45,2.46,2.46,0,0,1,2.65,2.16,37.2,37.2,0,0,1,.24,4.49c0,.4,0,.8,0,1.37l6.05-.35a26.05,26.05,0,0,0-.22-8c-.41-2-1.19-3.72-3.08-4.65a12.4,12.4,0,0,0-7.2-.87,8.46,8.46,0,0,0-4.66,2.33,7.14,7.14,0,0,0-2.61,4.8,2.71,2.71,0,0,1-.17.76,22,22,0,0,0-1.09,7.87c-.12,5.17,0,10.35,0,15.52A11.49,11.49,0,0,0,125,199.5a7.11,7.11,0,0,0,4,3.58,33.78,33.78,0,0,0,3.3,1,10.47,10.47,0,0,0,5.71-.36,5.77,5.77,0,0,0,2.88-2.07,13.28,13.28,0,0,0,2.64-8c0-.86,0-1.73,0-2.65Z"/>
	<path d="M157.67,202.52V200c0-3.5,0-7,0-10.5a11.18,11.18,0,0,1,1-4.55c2.95-6.63,5.83-13.29,8.73-20,.22-.51.42-1,.73-1.77a43.1,43.1,0,0,0-6.85.39l-6.45,16.25-5.52-15.6-5.37.37a4.37,4.37,0,0,0,0,1.16c.67,2.14,1.37,4.27,2.08,6.39s1.43,4.14,2.12,6.22q1.79,5.42,3.53,10.85a3.92,3.92,0,0,1,.22,1.22c0,2.61,0,5.22.05,7.83,0,1.39.07,2.78.1,4.23Z"/>
</svg>